<?xml version="1.0" encoding="utf-8"?>
<!-- Generator: Adobe Illustrator 19.0.0, SVG Export Plug-In . SVG Version: 6.00 Build 0)  -->
<svg version="1.1" id="Layer_1" xmlns="http://www.w3.org/2000/svg" xmlns:xlink="http://www.w3.org/1999/xlink" x="0px" y="0px"
	 viewBox="0 0 612 792" style="enable-background:new 0 0 612 792;" xml:space="preserve">
<style type="text/css">
	.st0{fill:#C4E0EC;}
	.st1{fill:#F5F7F7;}
	.st2{fill:#E7E7E7;}
	.st3{fill:#FFFFFF;}
	.st4{fill:#74A1D1;}
	.st5{fill:#5B87AF;}
	.st6{fill:#8DB9E3;}
	.st7{fill:#D0E9F9;}
	.st8{fill:#B58697;}
	.st9{fill:#BFD9EC;}
	.st10{fill:#EFD5E1;}
	.st11{fill:#996C7E;}
	.st12{fill:#12426D;}
	.st13{fill:#E2C36D;}
	.st14{fill:#CEAC59;}
	.st15{fill:#EFD084;}
	.st16{fill:#BC9B50;}
	.st17{fill:#C95FA3;}
	.st18{fill:#9C4C87;}
	.st19{fill:#DD8ABA;}
	.st20{fill:#B7579B;}
	.st21{fill:#7CB85A;}
	.st22{fill:#629241;}
	.st23{fill:#9CCE75;}
	.st24{fill:#FFD36C;}
	.st25{fill:#E1B148;}
	.st26{fill:#FFDF9C;}
	.st27{fill:none;stroke:#13436E;stroke-width:3.6955;stroke-linecap:round;stroke-miterlimit:10;}
	.st28{fill:#13436E;}
	.st29{fill:#FBD8AE;}
	.st30{fill:#78A567;}
	.st31{fill:#6E945F;}
	.st32{fill:#3C586A;}
	.st33{fill:#527B9B;}
	.st34{fill:#2F4A57;}
	.st35{fill:#D1B0C1;}
	.st36{fill:#C49BAC;}
	.st37{fill:#91C67D;}
	.st38{fill:#81B26D;}
	.st39{fill:#F9D5AC;}
	.st40{fill:#FBB998;}
	.st41{fill:#FFEAD8;}
</style>
<g id="Background_1">
	<g id="XMLID_497_">
		<path id="XMLID_133_" class="st0" d="M104.8,655.6c-0.3,0-0.6-0.1-0.9-0.2c-1.3-0.5-1.9-2-1.4-3.2l131-335.2
			c0.5-1.3,2-1.9,3.2-1.4c1.3,0.5,1.9,2,1.4,3.2l-131,335.2C106.7,655,105.8,655.6,104.8,655.6z"/>
	</g>
	<g id="XMLID_495_">
		<path id="XMLID_132_" class="st0" d="M145.9,655.6c-0.3,0-0.6-0.1-0.9-0.2c-1.3-0.5-1.9-2-1.4-3.2l131-335.2
			c0.5-1.3,2-1.9,3.2-1.4c1.3,0.5,1.9,2,1.4,3.2l-131,335.2C147.9,655,146.9,655.6,145.9,655.6z"/>
	</g>
	<g id="XMLID_493_">
		<path id="XMLID_131_" class="st0" d="M268.8,341.1h-41.1c-1.4,0-2.5-1.1-2.5-2.5s1.1-2.5,2.5-2.5h41.1c1.4,0,2.5,1.1,2.5,2.5
			S270.2,341.1,268.8,341.1z"/>
	</g>
	<g id="XMLID_491_">
		<path id="XMLID_130_" class="st0" d="M260.9,361.3h-41.1c-1.4,0-2.5-1.1-2.5-2.5c0-1.4,1.1-2.5,2.5-2.5h41.1
			c1.4,0,2.5,1.1,2.5,2.5C263.4,360.2,262.3,361.3,260.9,361.3z"/>
	</g>
	<g id="XMLID_489_">
		<path id="XMLID_129_" class="st0" d="M251.4,382.8h-40c-1.4,0-2.5-1.1-2.5-2.5s1.1-2.5,2.5-2.5h40c1.4,0,2.5,1.1,2.5,2.5
			S252.8,382.8,251.4,382.8z"/>
	</g>
	<g id="XMLID_487_">
		<path id="XMLID_128_" class="st0" d="M242.4,405.2h-39.7c-1.4,0-2.5-1.1-2.5-2.5c0-1.4,1.1-2.5,2.5-2.5h39.7
			c1.4,0,2.5,1.1,2.5,2.5C244.9,404.1,243.7,405.2,242.4,405.2z"/>
	</g>
	<g id="XMLID_485_">
		<path id="XMLID_127_" class="st0" d="M234.4,427.7h-39.8c-1.4,0-2.5-1.1-2.5-2.5s1.1-2.5,2.5-2.5h39.8c1.4,0,2.5,1.1,2.5,2.5
			S235.8,427.7,234.4,427.7z"/>
	</g>
	<g id="XMLID_483_">
		<path id="XMLID_126_" class="st0" d="M226.4,450.2h-39.8c-1.4,0-2.5-1.1-2.5-2.5c0-1.4,1.1-2.5,2.5-2.5h39.8
			c1.4,0,2.5,1.1,2.5,2.5C228.9,449.1,227.8,450.2,226.4,450.2z"/>
	</g>
	<g id="XMLID_481_">
		<path id="XMLID_125_" class="st0" d="M217.2,472.1h-39.8c-1.4,0-2.5-1.1-2.5-2.5c0-1.4,1.1-2.5,2.5-2.5h39.8
			c1.4,0,2.5,1.1,2.5,2.5C219.7,471,218.6,472.1,217.2,472.1z"/>
	</g>
	<g id="XMLID_479_">
		<path id="XMLID_124_" class="st0" d="M206.5,497.4h-39.8c-1.4,0-2.5-1.1-2.5-2.5c0-1.4,1.1-2.5,2.5-2.5h39.8
			c1.4,0,2.5,1.1,2.5,2.5C209,496.2,207.9,497.4,206.5,497.4z"/>
	</g>
	<g id="XMLID_477_">
		<path id="XMLID_123_" class="st0" d="M197.3,519.9h-39.8c-1.4,0-2.5-1.1-2.5-2.5c0-1.4,1.1-2.5,2.5-2.5h39.8
			c1.4,0,2.5,1.1,2.5,2.5C199.8,518.8,198.7,519.9,197.3,519.9z"/>
	</g>
	<g id="XMLID_475_">
		<path id="XMLID_122_" class="st0" d="M189.2,542h-39.8c-1.4,0-2.5-1.1-2.5-2.5s1.1-2.5,2.5-2.5h39.8c1.4,0,2.5,1.1,2.5,2.5
			S190.5,542,189.2,542z"/>
	</g>
	<g id="XMLID_473_">
		<path id="XMLID_121_" class="st0" d="M178.2,569.7h-37.4c-1.3,0-2.4-1.1-2.4-2.5c0-1.4,1.1-2.5,2.4-2.5h37.4
			c1.3,0,2.4,1.1,2.4,2.5C180.5,568.5,179.5,569.7,178.2,569.7z"/>
	</g>
	<g id="XMLID_471_">
		<path id="XMLID_120_" class="st0" d="M155.2,633.1h-39.8c-1.4,0-2.5-1.1-2.5-2.5c0-1.4,1.1-2.5,2.5-2.5h39.8
			c1.4,0,2.5,1.1,2.5,2.5C157.7,632,156.6,633.1,155.2,633.1z"/>
	</g>
	<g id="XMLID_469_">
		<path id="XMLID_119_" class="st0" d="M164.4,607.4h-39.8c-1.4,0-2.5-1.1-2.5-2.5c0-1.4,1.1-2.5,2.5-2.5h39.8
			c1.4,0,2.5,1.1,2.5,2.5C166.9,606.3,165.7,607.4,164.4,607.4z"/>
	</g>
</g>
<g id="Background_2">
	<rect id="XMLID_203_" x="502" y="580.5" class="st1" width="72.6" height="72.6"/>
	<path id="XMLID_195_" class="st2" d="M525.3,579.6c0,0-6.9,60.5,43,73.4H502v-72.6L525.3,579.6z"/>
	<path id="XMLID_194_" class="st2" d="M562.6,637.6l11.9,13v-34.3c0,0-9.5,12.2-12.4-5.6L562.6,637.6z"/>
	<path id="XMLID_193_" class="st2" d="M546.5,593.9c0,0,13.8-6.5,15.6-13.4l10.6,1L561.1,595L546.5,593.9z"/>
	<g id="XMLID_619_">
		<g id="XMLID_700_">
			<path id="XMLID_701_" class="st0" d="M577.1,655.5h-77.6V578h77.6V655.5z M504.5,650.5h67.6V583h-67.6V650.5z"/>
		</g>
		<g id="XMLID_696_">
			<path id="XMLID_697_" class="st0" d="M563.7,640.3h-50.8v-47.1h50.8V640.3z M516,637.2h44.5v-40.8H516V637.2z"/>
		</g>
		<g id="XMLID_694_">
			<path id="XMLID_187_" class="st0" d="M562.1,596.4c-0.4,0-0.7-0.1-1-0.4c-0.7-0.6-0.7-1.6-0.2-2.2l12.4-14.3
				c0.6-0.7,1.6-0.7,2.2-0.2c0.7,0.6,0.7,1.6,0.2,2.2l-12.4,14.3C563,596.2,562.6,596.4,562.1,596.4z"/>
		</g>
		<g id="XMLID_692_">
			<path id="XMLID_186_" class="st0" d="M574.6,654.6c-0.4,0-0.9-0.2-1.2-0.5l-12.4-14.3c-0.6-0.7-0.5-1.7,0.2-2.2
				c0.7-0.6,1.7-0.5,2.2,0.2l12.4,14.3c0.6,0.7,0.5,1.7-0.2,2.2C575.3,654.5,574.9,654.6,574.6,654.6z"/>
		</g>
		<g id="XMLID_624_">
			<path id="XMLID_185_" class="st0" d="M502,654.6c-0.4,0-0.7-0.1-1-0.4c-0.7-0.6-0.7-1.6-0.2-2.2l12.4-14.3
				c0.6-0.7,1.6-0.7,2.2-0.2c0.7,0.6,0.7,1.6,0.2,2.2l-12.4,14.3C502.9,654.4,502.4,654.6,502,654.6z"/>
		</g>
		<g id="XMLID_622_">
			<path id="XMLID_184_" class="st0" d="M514.4,596.4c-0.4,0-0.9-0.2-1.2-0.5l-12.4-14.3c-0.6-0.7-0.5-1.7,0.2-2.2
				c0.7-0.6,1.7-0.5,2.2,0.2l12.4,14.3c0.6,0.7,0.5,1.7-0.2,2.2C515.2,596.2,514.8,596.4,514.4,596.4z"/>
		</g>
		<g id="XMLID_620_">
			<path id="XMLID_183_" class="st0" d="M554.2,627.5c-0.9,0-1.6-0.7-1.6-1.6v-21c0-0.9,0.7-1.6,1.6-1.6s1.6,0.7,1.6,1.6v21
				C555.8,626.8,555,627.5,554.2,627.5z"/>
		</g>
	</g>
</g>
<g id="Background_3">
	<rect id="XMLID_278_" x="48" y="552.9" class="st1" width="99.3" height="99.3"/>
	<path id="XMLID_277_" class="st2" d="M79.9,551.7c0,0-9.4,82.8,58.9,100.5H48v-99.3L79.9,551.7z"/>
	<path id="XMLID_274_" class="st2" d="M131,631l16.3,17.8v-46.9c0,0-13,16.7-17-7.7L131,631z"/>
	<path id="XMLID_272_" class="st2" d="M108.9,571.2c0,0,18.8-8.9,21.4-18.4l14.5,1.3l-15.9,18.5L108.9,571.2z"/>
	<g id="XMLID_234_">
		<g id="XMLID_265_">
			<path id="XMLID_266_" class="st0" d="M150.7,655.5H44.6V549.4h106.1V655.5z M51.4,648.7h92.4v-92.4H51.4V648.7z"/>
		</g>
		<g id="XMLID_257_">
			<path id="XMLID_258_" class="st0" d="M132.4,634.7H62.9v-64.5h69.5V634.7z M67.2,630.4h60.9v-55.8H67.2V630.4z"/>
		</g>
		<g id="XMLID_252_">
			<path id="XMLID_254_" class="st0" d="M130.2,574.6c-0.5,0-1-0.2-1.4-0.5c-0.9-0.8-1-2.2-0.2-3.1l17-19.6c0.8-0.9,2.1-1,3.1-0.2
				c0.9,0.8,1,2.2,0.2,3.1l-17,19.6C131.5,574.3,130.8,574.6,130.2,574.6z"/>
		</g>
		<g id="XMLID_248_">
			<path id="XMLID_250_" class="st0" d="M147.3,654.3c-0.6,0-1.2-0.3-1.6-0.7l-17-19.6c-0.8-0.9-0.7-2.3,0.2-3.1
				c0.9-0.8,2.3-0.7,3.1,0.2l17,19.6c0.8,0.9,0.7,2.3-0.2,3.1C148.3,654.1,147.8,654.3,147.3,654.3z"/>
		</g>
		<g id="XMLID_244_">
			<path id="XMLID_246_" class="st0" d="M48,654.3c-0.5,0-1-0.2-1.4-0.5c-0.9-0.8-1-2.2-0.2-3.1l17-19.6c0.8-0.9,2.1-1,3.1-0.2
				c0.9,0.8,1,2.2,0.2,3.1l-17,19.6C49.2,654,48.6,654.3,48,654.3z"/>
		</g>
		<g id="XMLID_240_">
			<path id="XMLID_242_" class="st0" d="M65,574.6c-0.6,0-1.2-0.3-1.6-0.7l-17-19.6c-0.8-0.9-0.7-2.3,0.2-3.1
				c0.9-0.8,2.3-0.7,3.1,0.2l17,19.6c0.8,0.9,0.7,2.3-0.2,3.1C66,574.4,65.5,574.6,65,574.6z"/>
		</g>
		<g id="XMLID_236_">
			<path id="XMLID_238_" class="st0" d="M119.4,617.2c-1.2,0-2.2-1-2.2-2.2v-28.8c0-1.2,1-2.2,2.2-2.2s2.2,1,2.2,2.2v28.8
				C121.5,616.3,120.6,617.2,119.4,617.2z"/>
		</g>
	</g>
</g>
<g id="Background_4">
	<path id="XMLID_202_" class="st1" d="M348.5,197.7L329.2,220h158.1v194.4h20V219.6h44.6v-14h-28.4v7.4c0,0-24,1.4-29.3-15.7
		L348.5,197.7z"/>
	<path id="XMLID_201_" class="st2" d="M533.1,205.7c0,0-0.1,11.9,17.2,12.6l-26.5,1.3l-0.4-14H533.1z"/>
	<path id="XMLID_200_" class="st2" d="M489.4,197.4v20.9h14.7c0,0-9.2-6.9-3.4-10.5l-5.4-7.7l-1.1-2.8L489.4,197.4z"/>
	<path id="XMLID_199_" class="st2" d="M348.5,197.7L329.2,220h158.1l1.4-7.3C488.7,212.6,385.4,218.7,348.5,197.7z"/>
	<path id="XMLID_198_" class="st2" d="M506.2,221.2v191h-13.6c0,0,16.8-91.8,8.7-192.6L506.2,221.2z"/>
	<polygon id="XMLID_197_" class="st3" points="391.5,197.4 488.7,212.6 488.1,197.7 	"/>
	<polygon id="XMLID_196_" class="st3" points="499.4,220 487.3,364.6 487.3,220 	"/>
	<g id="XMLID_499_">
		<g id="XMLID_614_">
			<g id="XMLID_617_">
				<path id="XMLID_182_" class="st0" d="M370.7,220.2c-0.4,0-0.8-0.1-1.1-0.4l-22.1-20.9c-0.6-0.6-0.7-1.6-0.1-2.2
					c0.6-0.6,1.6-0.7,2.2-0.1l22.1,20.9c0.6,0.6,0.7,1.6,0.1,2.2C371.5,220.1,371.1,220.2,370.7,220.2z"/>
			</g>
			<g id="XMLID_615_">
				<path id="XMLID_181_" class="st0" d="M348.5,221.5c-0.4,0-0.8-0.2-1.2-0.5c-0.6-0.6-0.6-1.6,0.1-2.2l23.5-22.2
					c0.6-0.6,1.6-0.6,2.2,0.1c0.6,0.6,0.6,1.6-0.1,2.2l-23.5,22.2C349.3,221.4,348.9,221.5,348.5,221.5z"/>
			</g>
		</g>
		<g id="XMLID_609_">
			<g id="XMLID_612_">
				<path id="XMLID_180_" class="st0" d="M394.2,220.2c-0.4,0-0.8-0.1-1.1-0.4l-22.1-20.9c-0.6-0.6-0.7-1.6-0.1-2.2
					c0.6-0.6,1.6-0.7,2.2-0.1l22.1,20.9c0.6,0.6,0.7,1.6,0.1,2.2C395,220.1,394.6,220.2,394.2,220.2z"/>
			</g>
			<g id="XMLID_610_">
				<path id="XMLID_179_" class="st0" d="M372,221.5c-0.4,0-0.8-0.2-1.2-0.5c-0.6-0.6-0.6-1.6,0.1-2.2l23.5-22.2
					c0.6-0.6,1.6-0.6,2.2,0.1c0.6,0.6,0.6,1.6-0.1,2.2l-23.5,22.2C372.8,221.4,372.4,221.5,372,221.5z"/>
			</g>
		</g>
		<g id="XMLID_604_">
			<g id="XMLID_607_">
				<path id="XMLID_178_" class="st0" d="M417.6,219.9c-0.4,0-0.8-0.1-1.1-0.4l-22.1-20.9c-0.6-0.6-0.7-1.6-0.1-2.2
					c0.6-0.6,1.6-0.7,2.2-0.1l22.1,20.9c0.6,0.6,0.7,1.6,0.1,2.2C418.5,219.7,418.1,219.9,417.6,219.9z"/>
			</g>
			<g id="XMLID_605_">
				<path id="XMLID_177_" class="st0" d="M395.5,221.2c-0.4,0-0.8-0.2-1.2-0.5c-0.6-0.6-0.6-1.6,0.1-2.2l23.5-22.2
					c0.6-0.6,1.6-0.6,2.2,0.1c0.6,0.6,0.6,1.6-0.1,2.2l-23.5,22.2C396.3,221.1,395.9,221.2,395.5,221.2z"/>
			</g>
		</g>
		<g id="XMLID_599_">
			<g id="XMLID_602_">
				<path id="XMLID_176_" class="st0" d="M441.2,219.9c-0.4,0-0.8-0.1-1.1-0.4l-22.1-20.9c-0.6-0.6-0.7-1.6-0.1-2.2
					c0.6-0.6,1.6-0.7,2.2-0.1l22.1,20.9c0.6,0.6,0.7,1.6,0.1,2.2C442,219.7,441.6,219.9,441.2,219.9z"/>
			</g>
			<g id="XMLID_600_">
				<path id="XMLID_175_" class="st0" d="M419,221.2c-0.4,0-0.8-0.2-1.2-0.5c-0.6-0.6-0.6-1.6,0.1-2.2l23.5-22.2
					c0.6-0.6,1.6-0.6,2.2,0.1c0.6,0.6,0.6,1.6-0.1,2.2l-23.5,22.2C419.8,221.1,419.4,221.2,419,221.2z"/>
			</g>
		</g>
		<g id="XMLID_594_">
			<g id="XMLID_597_">
				<path id="XMLID_174_" class="st0" d="M463.8,219.9c-0.4,0-0.8-0.1-1.1-0.4l-22.1-20.9c-0.6-0.6-0.7-1.6-0.1-2.2
					c0.6-0.6,1.6-0.7,2.2-0.1l22.1,20.9c0.6,0.6,0.7,1.6,0.1,2.2C464.6,219.7,464.2,219.9,463.8,219.9z"/>
			</g>
			<g id="XMLID_595_">
				<path id="XMLID_173_" class="st0" d="M441.7,221.2c-0.4,0-0.8-0.2-1.2-0.5c-0.6-0.6-0.6-1.6,0.1-2.2l23.5-22.2
					c0.6-0.6,1.6-0.6,2.2,0.1c0.6,0.6,0.6,1.6-0.1,2.2l-23.5,22.2C442.4,221.1,442.1,221.2,441.7,221.2z"/>
			</g>
		</g>
		<g id="XMLID_500_">
			<g id="XMLID_584_">
				<g id="XMLID_592_">
					<path id="XMLID_172_" class="st0" d="M487.3,425.6c-1.4,0-2.5-1.1-2.5-2.5V220c0-1.4,1.1-2.5,2.5-2.5s2.5,1.1,2.5,2.5v203.1
						C489.8,424.5,488.7,425.6,487.3,425.6z"/>
				</g>
				<g id="XMLID_590_">
					<path id="XMLID_171_" class="st0" d="M507.3,425.6c-1.4,0-2.5-1.1-2.5-2.5V220c0-1.4,1.1-2.5,2.5-2.5s2.5,1.1,2.5,2.5v203.1
						C509.8,424.5,508.7,425.6,507.3,425.6z"/>
				</g>
				<g id="XMLID_585_">
					<path id="XMLID_586_" class="st0" d="M523.9,242.1c-1.4,0-2.5-1.1-2.5-2.5v-17.1H323.7l23.7-27.2h151.5l-0.6,3
						c0,0.1-0.5,2.9,1.9,5.7c2.4,2.9,8,6.2,21.2,6.6v-7.4h33.1v19.3h-28.1v17.1C526.4,240.9,525.2,242.1,523.9,242.1z M526.4,217.5
						h23.1v-9.3h-23.1V217.5z M334.7,217.5h186.7v-1.9c-12.4-0.3-20.8-3.2-25.2-8.5c-2-2.4-2.7-4.9-2.9-6.8H349.7L334.7,217.5z"/>
				</g>
			</g>
			<g id="XMLID_548_">
				<g id="XMLID_566_">
					<g id="XMLID_579_">
						<g id="XMLID_582_">
							<path id="XMLID_167_" class="st0" d="M348.5,221.5c-0.9,0-1.6-0.7-1.6-1.6v-22.2c0-0.9,0.7-1.6,1.6-1.6
								c0.9,0,1.6,0.7,1.6,1.6V220C350.1,220.8,349.4,221.5,348.5,221.5z"/>
						</g>
						<g id="XMLID_580_">
							<path id="XMLID_166_" class="st0" d="M372.1,221.5c-0.9,0-1.6-0.7-1.6-1.6v-22.2c0-0.9,0.7-1.6,1.6-1.6
								c0.9,0,1.6,0.7,1.6,1.6V220C373.7,220.8,373,221.5,372.1,221.5z"/>
						</g>
					</g>
					<g id="XMLID_574_">
						<g id="XMLID_577_">
							<path id="XMLID_165_" class="st0" d="M395.6,221.5c-0.9,0-1.6-0.7-1.6-1.6v-22.2c0-0.9,0.7-1.6,1.6-1.6
								c0.9,0,1.6,0.7,1.6,1.6V220C397.2,220.8,396.5,221.5,395.6,221.5z"/>
						</g>
						<g id="XMLID_575_">
							<path id="XMLID_164_" class="st0" d="M419.1,221.5c-0.9,0-1.6-0.7-1.6-1.6v-22.2c0-0.9,0.7-1.6,1.6-1.6
								c0.9,0,1.6,0.7,1.6,1.6V220C420.7,220.8,420,221.5,419.1,221.5z"/>
						</g>
					</g>
					<g id="XMLID_569_">
						<g id="XMLID_572_">
							<path id="XMLID_163_" class="st0" d="M441.7,221.5c-0.9,0-1.6-0.7-1.6-1.6v-22.2c0-0.9,0.7-1.6,1.6-1.6
								c0.9,0,1.6,0.7,1.6,1.6V220C443.2,220.8,442.5,221.5,441.7,221.5z"/>
						</g>
						<g id="XMLID_570_">
							<path id="XMLID_162_" class="st0" d="M465.2,221.5c-0.9,0-1.6-0.7-1.6-1.6v-22.2c0-0.9,0.7-1.6,1.6-1.6
								c0.9,0,1.6,0.7,1.6,1.6V220C466.8,220.8,466.1,221.5,465.2,221.5z"/>
						</g>
					</g>
					<g id="XMLID_567_">
						<path id="XMLID_161_" class="st0" d="M489.4,221.5c-0.9,0-1.6-0.7-1.6-1.6v-22.2c0-0.9,0.7-1.6,1.6-1.6s1.6,0.7,1.6,1.6V220
							C491,220.8,490.3,221.5,489.4,221.5z"/>
					</g>
				</g>
				<g id="XMLID_549_">
					<g id="XMLID_564_">
						<path id="XMLID_160_" class="st0" d="M507.3,241.1h-20c-0.9,0-1.6-0.7-1.6-1.6c0-0.9,0.7-1.6,1.6-1.6h20
							c0.9,0,1.6,0.7,1.6,1.6C508.9,240.4,508.2,241.1,507.3,241.1z"/>
					</g>
					<g id="XMLID_562_">
						<path id="XMLID_159_" class="st0" d="M507.3,263.4h-20c-0.9,0-1.6-0.7-1.6-1.6c0-0.9,0.7-1.6,1.6-1.6h20
							c0.9,0,1.6,0.7,1.6,1.6C508.9,262.7,508.2,263.4,507.3,263.4z"/>
					</g>
					<g id="XMLID_560_">
						<path id="XMLID_158_" class="st0" d="M507.3,286.2h-20c-0.9,0-1.6-0.7-1.6-1.6c0-0.9,0.7-1.6,1.6-1.6h20
							c0.9,0,1.6,0.7,1.6,1.6C508.9,285.5,508.2,286.2,507.3,286.2z"/>
					</g>
					<g id="XMLID_558_">
						<path id="XMLID_157_" class="st0" d="M507.3,308.4h-20c-0.9,0-1.6-0.7-1.6-1.6s0.7-1.6,1.6-1.6h20c0.9,0,1.6,0.7,1.6,1.6
							S508.2,308.4,507.3,308.4z"/>
					</g>
					<g id="XMLID_556_">
						<path id="XMLID_156_" class="st0" d="M507.3,332.1h-20c-0.9,0-1.6-0.7-1.6-1.6s0.7-1.6,1.6-1.6h20c0.9,0,1.6,0.7,1.6,1.6
							S508.2,332.1,507.3,332.1z"/>
					</g>
					<g id="XMLID_554_">
						<path id="XMLID_155_" class="st0" d="M507.3,354.4h-20c-0.9,0-1.6-0.7-1.6-1.6c0-0.9,0.7-1.6,1.6-1.6h20
							c0.9,0,1.6,0.7,1.6,1.6C508.9,353.7,508.2,354.4,507.3,354.4z"/>
					</g>
					<g id="XMLID_552_">
						<path id="XMLID_154_" class="st0" d="M507.3,377.2h-20c-0.9,0-1.6-0.7-1.6-1.6c0-0.9,0.7-1.6,1.6-1.6h20
							c0.9,0,1.6,0.7,1.6,1.6C508.9,376.4,508.2,377.2,507.3,377.2z"/>
					</g>
					<g id="XMLID_550_">
						<path id="XMLID_153_" class="st0" d="M507.3,399.4h-20c-0.9,0-1.6-0.7-1.6-1.6c0-0.9,0.7-1.6,1.6-1.6h20
							c0.9,0,1.6,0.7,1.6,1.6C508.9,398.7,508.2,399.4,507.3,399.4z"/>
					</g>
				</g>
			</g>
			<g id="XMLID_543_">
				<g id="XMLID_546_">
					<path id="XMLID_152_" class="st0" d="M487.3,219.9c-0.4,0-0.8-0.1-1.1-0.4l-22.1-20.9c-0.6-0.6-0.7-1.6-0.1-2.2
						c0.6-0.6,1.6-0.7,2.2-0.1l22.1,20.9c0.6,0.6,0.7,1.6,0.1,2.2C488.2,219.7,487.8,219.9,487.3,219.9z"/>
				</g>
				<g id="XMLID_544_">
					<path id="XMLID_151_" class="st0" d="M465.2,221.2c-0.4,0-0.8-0.2-1.2-0.5c-0.6-0.6-0.6-1.6,0.1-2.2l23.5-22.2
						c0.6-0.6,1.6-0.6,2.2,0.1c0.6,0.6,0.6,1.6-0.1,2.2l-23.5,22.2C466,221.1,465.6,221.2,465.2,221.2z"/>
				</g>
			</g>
			<g id="XMLID_538_">
				<g id="XMLID_541_">
					<path id="XMLID_150_" class="st0" d="M507.3,263.4c-0.4,0-0.9-0.2-1.2-0.5l-20-22.8c-0.6-0.7-0.5-1.7,0.1-2.2
						c0.7-0.6,1.7-0.5,2.2,0.1l20,22.8c0.6,0.7,0.5,1.7-0.1,2.2C508.1,263.3,507.7,263.4,507.3,263.4z"/>
				</g>
				<g id="XMLID_539_">
					<path id="XMLID_149_" class="st0" d="M487.3,263.4c-0.4,0-0.8-0.1-1.1-0.4c-0.7-0.6-0.7-1.6-0.1-2.2l20-22.2
						c0.6-0.7,1.6-0.7,2.2-0.1c0.7,0.6,0.7,1.6,0.1,2.2l-20,22.2C488.2,263.2,487.8,263.4,487.3,263.4z"/>
				</g>
			</g>
			<g id="XMLID_533_">
				<g id="XMLID_536_">
					<path id="XMLID_148_" class="st0" d="M507.3,286.2c-0.4,0-0.9-0.2-1.2-0.5l-20-22.8c-0.6-0.7-0.5-1.7,0.1-2.2
						c0.7-0.6,1.7-0.5,2.2,0.1l20,22.8c0.6,0.7,0.5,1.7-0.1,2.2C508.1,286,507.7,286.2,507.3,286.2z"/>
				</g>
				<g id="XMLID_534_">
					<path id="XMLID_147_" class="st0" d="M487.3,286.2c-0.4,0-0.8-0.1-1.1-0.4c-0.7-0.6-0.7-1.6-0.1-2.2l20-22.2
						c0.6-0.6,1.6-0.7,2.2-0.1c0.7,0.6,0.7,1.6,0.1,2.2l-20,22.2C488.2,286,487.8,286.2,487.3,286.2z"/>
				</g>
			</g>
			<g id="XMLID_528_">
				<g id="XMLID_531_">
					<path id="XMLID_146_" class="st0" d="M507.3,308.4c-0.4,0-0.9-0.2-1.2-0.5l-20-22.8c-0.6-0.7-0.5-1.7,0.1-2.2
						c0.7-0.6,1.7-0.5,2.2,0.1l20,22.8c0.6,0.7,0.5,1.7-0.1,2.2C508.1,308.3,507.7,308.4,507.3,308.4z"/>
				</g>
				<g id="XMLID_529_">
					<path id="XMLID_145_" class="st0" d="M487.3,308.4c-0.4,0-0.8-0.1-1.1-0.4c-0.7-0.6-0.7-1.6-0.1-2.2l20-22.2
						c0.6-0.6,1.6-0.7,2.2-0.1c0.7,0.6,0.7,1.6,0.1,2.2l-20,22.2C488.2,308.2,487.8,308.4,487.3,308.4z"/>
				</g>
			</g>
			<g id="XMLID_523_">
				<g id="XMLID_526_">
					<path id="XMLID_144_" class="st0" d="M507.3,332.1c-0.4,0-0.9-0.2-1.2-0.5l-20-22.8c-0.6-0.7-0.5-1.7,0.1-2.2
						c0.7-0.6,1.7-0.5,2.2,0.1l20,22.8c0.6,0.7,0.5,1.7-0.1,2.2C508.1,332,507.7,332.1,507.3,332.1z"/>
				</g>
				<g id="XMLID_524_">
					<path id="XMLID_143_" class="st0" d="M487.3,332.1c-0.4,0-0.8-0.1-1.1-0.4c-0.7-0.6-0.7-1.6-0.1-2.2l20-22.2
						c0.6-0.7,1.6-0.7,2.2-0.1c0.7,0.6,0.7,1.6,0.1,2.2l-20,22.2C488.2,331.9,487.8,332.1,487.3,332.1z"/>
				</g>
			</g>
			<g id="XMLID_518_">
				<g id="XMLID_521_">
					<path id="XMLID_142_" class="st0" d="M507.3,354.4c-0.4,0-0.9-0.2-1.2-0.5l-20-22.8c-0.6-0.7-0.5-1.7,0.1-2.2
						c0.7-0.6,1.7-0.5,2.2,0.1l20,22.8c0.6,0.7,0.5,1.7-0.1,2.2C508.1,354.2,507.7,354.4,507.3,354.4z"/>
				</g>
				<g id="XMLID_519_">
					<path id="XMLID_141_" class="st0" d="M487.3,354.4c-0.4,0-0.8-0.1-1.1-0.4c-0.7-0.6-0.7-1.6-0.1-2.2l20-22.2
						c0.6-0.6,1.6-0.7,2.2-0.1c0.7,0.6,0.7,1.6,0.1,2.2l-20,22.2C488.2,354.2,487.8,354.4,487.3,354.4z"/>
				</g>
			</g>
			<g id="XMLID_513_">
				<g id="XMLID_516_">
					<path id="XMLID_140_" class="st0" d="M507.3,376.7c-0.4,0-0.9-0.2-1.2-0.5l-20-22.8c-0.6-0.7-0.5-1.7,0.1-2.2
						c0.7-0.6,1.7-0.5,2.2,0.1l20,22.8c0.6,0.7,0.5,1.7-0.1,2.2C508.1,376.6,507.7,376.7,507.3,376.7z"/>
				</g>
				<g id="XMLID_514_">
					<path id="XMLID_139_" class="st0" d="M487.3,376.7c-0.4,0-0.8-0.1-1.1-0.4c-0.7-0.6-0.7-1.6-0.1-2.2l20-22.2
						c0.6-0.7,1.6-0.7,2.2-0.1c0.7,0.6,0.7,1.6,0.1,2.2l-20,22.2C488.2,376.6,487.8,376.7,487.3,376.7z"/>
				</g>
			</g>
			<g id="XMLID_508_">
				<g id="XMLID_511_">
					<path id="XMLID_138_" class="st0" d="M507.3,399.9c-0.4,0-0.9-0.2-1.2-0.5l-20-22.8c-0.6-0.7-0.5-1.7,0.1-2.2
						c0.7-0.6,1.7-0.5,2.2,0.1l20,22.8c0.6,0.7,0.5,1.7-0.1,2.2C508.1,399.8,507.7,399.9,507.3,399.9z"/>
				</g>
				<g id="XMLID_509_">
					<path id="XMLID_137_" class="st0" d="M487.3,399.9c-0.4,0-0.8-0.1-1.1-0.4c-0.7-0.6-0.7-1.6-0.1-2.2l20-22.2
						c0.6-0.6,1.6-0.7,2.2-0.1c0.7,0.6,0.7,1.6,0.1,2.2l-20,22.2C488.2,399.8,487.8,399.9,487.3,399.9z"/>
				</g>
			</g>
			<g id="XMLID_503_">
				<g id="XMLID_506_">
					<path id="XMLID_136_" class="st0" d="M507.3,422.2c-0.4,0-0.9-0.2-1.2-0.5l-20-22.8c-0.6-0.7-0.5-1.7,0.1-2.2
						c0.7-0.6,1.7-0.5,2.2,0.1l20,22.8c0.6,0.7,0.5,1.7-0.1,2.2C508.1,422,507.7,422.2,507.3,422.2z"/>
				</g>
				<g id="XMLID_504_">
					<path id="XMLID_135_" class="st0" d="M487.3,422.2c-0.4,0-0.8-0.1-1.1-0.4c-0.7-0.6-0.7-1.6-0.1-2.2l20-22.2
						c0.6-0.6,1.6-0.7,2.2-0.1c0.7,0.6,0.7,1.6,0.1,2.2l-20,22.2C488.2,422,487.8,422.2,487.3,422.2z"/>
				</g>
			</g>
			<g id="XMLID_501_">
				<path id="XMLID_134_" class="st0" d="M341.3,286.6c-1.4,0-2.5-1.1-2.5-2.5V220c0-1.4,1.1-2.5,2.5-2.5s2.5,1.1,2.5,2.5v64.1
					C343.8,285.4,342.7,286.6,341.3,286.6z"/>
			</g>
		</g>
	</g>
</g>
<g id="Dashboard">
	<polygon id="XMLID_118_" class="st4" points="266,653.1 266,287.8 270.6,277.7 278.5,270.3 449.8,270.3 449.8,291.5 437.6,291.5 
		437.6,317.4 449.8,317.4 449.8,338.6 437.6,338.6 437.6,364.6 449.8,364.6 449.8,385.8 437.6,385.8 437.6,412.5 538.3,412.5 
		538.3,433.7 525,433.7 525,459 538.3,459 538.3,480.2 525,480.2 525,506.8 538.3,506.8 538.3,528 524,528 524,554.4 538.3,554.4 
		538.3,574.8 525,574.8 525,653.1 	"/>
	<path id="XMLID_117_" class="st5" d="M310.3,270.3c0,0-41.4,251.6,213.7,266.2v17.1l14.3,0.9v20.3H525v25h13.2v21.5H527v31.9H266
		V280.9l6.6-7.4l5.9-3.2H310.3z"/>
	<path id="XMLID_116_" class="st6" d="M327.7,270.3c0,0,65-4.6,65,77.3v75.5c0,0-13.7,75.5,132.3,75.5v-18.4h13.2V459H525v-25.3
		h13.2v-21.2H436.6v-26.7h13.2v-21.2h-12.3v-26h12.3v-21.2h-12.3v-26h12.3v-21.2H327.7z"/>
	<polygon id="XMLID_111_" class="st7" points="408,359 289.9,359 282.8,364 279,370.9 279,376.1 281.6,383.3 283.8,387.2 
		291.2,391.1 408,391.1 416.7,387.2 421.5,376.1 419.9,367 	"/>
	<polygon id="XMLID_110_" class="st7" points="361.4,324.3 368.3,314.5 367.7,301.7 358.1,291.8 348.4,290.1 336.8,295.7 
		331.3,308.3 334.4,319.4 339.8,326.7 350.3,328 	"/>
	<polygon id="XMLID_109_" class="st8" points="316.9,312.1 315.6,303.7 311.2,295.5 302.6,291.5 291.2,291.4 281.6,298.4 279,308.3 
		281.2,317.9 288,326.2 296.2,328 305.5,328 312.2,321.5 	"/>
	<polygon id="XMLID_108_" class="st8" points="421.5,312.1 420.1,303.7 415.7,295.5 407.2,291.5 395.8,291.4 386.2,298.4 
		383.6,308.3 385.8,317.9 392.6,326.2 400.8,328 410.1,328 416.8,321.5 	"/>
	<path id="XMLID_78_" class="st9" d="M339.3,293.6c0,0-5.3,26.8,26.6,24.3l-7,8l-11.8,1.8l-7.2-2.9l-6.6-7.5l-1.9-9.1l1.4-6.6
		L339.3,293.6z"/>
	<path id="XMLID_77_" class="st9" d="M342.3,359c0,0-2.5,32.4,57.9,32.4h-109l-7.4-4.2l-4.8-7.8v-8.5l3.8-6.9l7-5H342.3z"/>
	<polygon id="XMLID_76_" class="st10" points="394.1,303.4 394,314.5 395.5,316.7 405.1,317.9 410.1,316.1 410.1,312.9 411,303.4 
		408,300.2 397.1,300.2 	"/>
	<path id="XMLID_75_" class="st11" d="M393.7,292.3c0,0,1.1,8,7.7,7.9l-5.8,1.2l-1.4,1.9l-0.1,11.1l3.5,3.4l6.6-0.5l5.9-1.3
		c0,0,5.7-1.1,7.5,4.4l-6.2,5.3l-11.8,1.9l-8.9-3.9l-3.6-4.4l-3.4-8.7l1.5-10.5l3.3-4.7L393.7,292.3z"/>
	<path id="XMLID_74_" class="st11" d="M279,304.5c0,0,11.1,14.8,28.2,7.6c17.1-7.2,9.7,2,9.7,2l-4.7,7.4l-9,6.5l-10-0.3l-7.6-4.4
		l-4.5-5.4l-2.2-8L279,304.5z"/>
	<g id="XMLID_332_">
		<path id="XMLID_62_" class="st12" d="M525,655.6c-1.4,0-2.5-1.1-2.5-2.5V414.7h-88.5v-142H284c-8.6,0-15.5,7-15.5,15.5v364.8
			c0,1.4-1.1,2.5-2.5,2.5s-2.5-1.1-2.5-2.5V288.3c0-11.3,9.2-20.5,20.5-20.5h155v142h88.5v243.3C527.5,654.4,526.4,655.6,525,655.6z
			"/>
	</g>
	<g id="XMLID_328_">
		<path id="XMLID_329_" class="st12" d="M452.3,341.1h-18.2v-26.2h18.2V341.1z M439.1,336.1h8.2v-16.2h-8.2V336.1z"/>
	</g>
	<g id="XMLID_319_">
		<g id="XMLID_324_">
			<path id="XMLID_325_" class="st12" d="M452.3,294h-18.2v-26.2h18.2V294z M439.1,289h8.2v-16.2h-8.2V289z"/>
		</g>
		<g id="XMLID_320_">
			<path id="XMLID_321_" class="st12" d="M452.3,388.3h-18.2v-26.2h18.2V388.3z M439.1,383.3h8.2v-16.2h-8.2V383.3z"/>
		</g>
	</g>
	<g id="XMLID_315_">
		<path id="XMLID_316_" class="st12" d="M540.8,482.7h-18.2v-26.2h18.2V482.7z M527.5,477.7h8.2v-16.2h-8.2V477.7z"/>
	</g>
	<g id="XMLID_306_">
		<g id="XMLID_311_">
			<path id="XMLID_312_" class="st12" d="M540.8,436.2h-18.2V410h18.2V436.2z M527.5,431.2h8.2V415h-8.2V431.2z"/>
		</g>
		<g id="XMLID_307_">
			<path id="XMLID_308_" class="st12" d="M540.8,530.5h-18.2v-26.2h18.2V530.5z M527.5,525.5h8.2v-16.2h-8.2V525.5z"/>
		</g>
	</g>
	<g id="XMLID_302_">
		<path id="XMLID_303_" class="st12" d="M540.8,623.8h-18.2v-26.2h18.2V623.8z M527.5,618.8h8.2v-16.2h-8.2V618.8z"/>
	</g>
	<g id="XMLID_297_">
		<g id="XMLID_298_">
			<path id="XMLID_299_" class="st12" d="M540.8,577.3h-18.2v-26.2h18.2V577.3z M527.5,572.3h8.2v-16.2h-8.2V572.3z"/>
		</g>
	</g>
	<g id="XMLID_292_">
		<g id="XMLID_293_">
			<path id="XMLID_294_" class="st12" d="M405.8,394H294.7c-10.4,0-18.8-8.4-18.8-18.8c0-10.4,8.4-18.8,18.8-18.8h111.1
				c10.4,0,18.8,8.4,18.8,18.8C424.6,385.5,416.1,394,405.8,394z M294.7,361.3c-7.6,0-13.8,6.2-13.8,13.8c0,7.6,6.2,13.8,13.8,13.8
				h111.1c7.6,0,13.8-6.2,13.8-13.8c0-7.6-6.2-13.8-13.8-13.8H294.7z"/>
		</g>
	</g>
	<g id="XMLID_290_">
		<path id="XMLID_43_" class="st12" d="M408,377.7H292.5c-1.4,0-2.5-1.1-2.5-2.5s1.1-2.5,2.5-2.5H408c1.4,0,2.5,1.1,2.5,2.5
			S409.4,377.7,408,377.7z"/>
	</g>
	<g id="XMLID_288_">
		<path id="XMLID_42_" class="st12" d="M330.7,385.5c-1.2,0-2.2-1-2.2-2.2V367c0-1.2,1-2.2,2.2-2.2s2.2,1,2.2,2.2v16.2
			C332.8,384.5,331.9,385.5,330.7,385.5z"/>
	</g>
	<g id="XMLID_279_">
		<g id="XMLID_284_">
			<path id="XMLID_285_" class="st12" d="M298,330.2c-11.7,0-21.2-9.5-21.2-21.2s9.5-21.2,21.2-21.2c11.7,0,21.2,9.5,21.2,21.2
				S309.6,330.2,298,330.2z M298,292.3c-9.3,0-16.8,7.5-16.8,16.8c0,9.3,7.5,16.8,16.8,16.8c9.3,0,16.8-7.5,16.8-16.8
				C314.7,299.8,307.2,292.3,298,292.3z"/>
		</g>
		<g id="XMLID_280_">
			<path id="XMLID_281_" class="st12" d="M402.5,330.2c-11.7,0-21.2-9.5-21.2-21.2s9.5-21.2,21.2-21.2c11.7,0,21.2,9.5,21.2,21.2
				S414.2,330.2,402.5,330.2z M402.5,292.3c-9.3,0-16.8,7.5-16.8,16.8c0,9.3,7.5,16.8,16.8,16.8c9.3,0,16.8-7.5,16.8-16.8
				C419.3,299.8,411.8,292.3,402.5,292.3z"/>
		</g>
	</g>
	<g id="XMLID_275_">
		<path id="XMLID_276_" class="st12" d="M350.3,330.2c-11.7,0-21.2-9.5-21.2-21.2s9.5-21.2,21.2-21.2s21.2,9.5,21.2,21.2
			S361.9,330.2,350.3,330.2z M350.3,292.3c-9.3,0-16.8,7.5-16.8,16.8c0,9.3,7.5,16.8,16.8,16.8c9.3,0,16.8-7.5,16.8-16.8
			C367,299.8,359.5,292.3,350.3,292.3z"/>
	</g>
	<g id="XMLID_273_">
		<path id="XMLID_35_" class="st12" d="M292.5,319c-0.9,0-1.6-0.7-1.6-1.6v-15.7c0-0.9,0.7-1.6,1.6-1.6c0.9,0,1.6,0.7,1.6,1.6v15.7
			C294.1,318.3,293.4,319,292.5,319z"/>
	</g>
	<g id="XMLID_271_">
		<path id="XMLID_34_" class="st12" d="M302.6,319c-0.9,0-1.6-0.7-1.6-1.6v-15.7c0-0.9,0.7-1.6,1.6-1.6c0.9,0,1.6,0.7,1.6,1.6v15.7
			C304.2,318.3,303.5,319,302.6,319z"/>
	</g>
	<g id="XMLID_267_">
		<path id="XMLID_268_" class="st12" d="M406.2,319.5h-7.2c-3.8,0-6.8-3.1-6.8-6.8v-7.2c0-3.8,3.1-6.8,6.8-6.8h7.2
			c3.8,0,6.8,3.1,6.8,6.8v7.2C413,316.4,409.9,319.5,406.2,319.5z M398.9,301.8c-2,0-3.7,1.6-3.7,3.7v7.2c0,2,1.6,3.7,3.7,3.7h7.2
			c2,0,3.7-1.6,3.7-3.7v-7.2c0-2-1.6-3.7-3.7-3.7H398.9z"/>
	</g>
	<g id="XMLID_253_">
		<path id="XMLID_25_" class="st12" d="M395.5,279.3h-45.3c-0.9,0-1.6-0.7-1.6-1.6c0-0.9,0.7-1.6,1.6-1.6h45.3
			c0.9,0,1.6,0.7,1.6,1.6C397.1,278.6,396.4,279.3,395.5,279.3z"/>
	</g>
	<g id="XMLID_251_">
		<path id="XMLID_24_" class="st12" d="M417.6,279.3h-15.1c-0.9,0-1.6-0.7-1.6-1.6c0-0.9,0.7-1.6,1.6-1.6h15.1
			c0.9,0,1.6,0.7,1.6,1.6C419.2,278.6,418.5,279.3,417.6,279.3z"/>
	</g>
	<g id="XMLID_249_">
		<path id="XMLID_23_" class="st12" d="M382.3,404.3h-86.1c-0.9,0-1.6-0.7-1.6-1.6c0-0.9,0.7-1.6,1.6-1.6h86.1
			c0.9,0,1.6,0.7,1.6,1.6C383.9,403.6,383.2,404.3,382.3,404.3z"/>
	</g>
</g>
<g id="Icon_1">
	<path id="XMLID_115_" class="st13" d="M306.5,436.6l-1.5,1l-11.7,7.5l-6.2,8.7v64.8l7.6,11.2l8.5,4.8l6.2,1.5H367l11.2-3.9l6.2-6.8
		l5.2-11V459l-2.5-9.7l-8.9-8.7c0,0-7.8-3.8-8.6-3.5C368.8,437.4,306.5,436.6,306.5,436.6z"/>
	<polygon id="XMLID_114_" class="st14" points="306.5,436.6 312.9,461.7 389.6,490.6 389.6,514.3 378.2,532.1 367,536 303.2,534.6 
		291.1,525.3 287.1,518.6 287.1,453.8 293.3,445.1 	"/>
	<polygon id="XMLID_83_" class="st15" points="344.3,473.5 389.6,490.6 389.6,463 387.1,449.3 	"/>
	<polygon id="XMLID_82_" class="st16" points="312.9,461.7 306.5,436.6 327.2,436.6 369.6,437.1 318.6,444.3 	"/>
	<g id="XMLID_259_">
		<path id="XMLID_260_" class="st12" d="M364.4,538.7H312c-15.4,0-27.9-12.5-27.9-27.9V462c0-15.4,12.5-27.9,27.9-27.9h52.4
			c15.4,0,27.9,12.5,27.9,27.9v48.7C392.3,526.1,379.8,538.7,364.4,538.7z M312,439.1c-12.6,0-22.9,10.3-22.9,22.9v48.7
			c0,12.6,10.3,22.9,22.9,22.9h52.4c12.6,0,22.9-10.3,22.9-22.9V462c0-12.6-10.3-22.9-22.9-22.9H312z"/>
	</g>
</g>
<g id="Icon_2">
	<path id="XMLID_106_" class="st17" d="M419.2,555.2l-1.5,1l-11.9,4.7l-6.1,11.6v64.8l7.6,11.2l8.5,4.8l6.2,1.5h57.6l11.2-3.9
		l6.2-6.8l5.2-11v-55.3l-2.5-9.7l-8.9-8.7c0,0-7.8-3.8-8.6-3.5C481.5,556,419.2,555.2,419.2,555.2z"/>
	<polygon id="XMLID_81_" class="st18" points="398.2,603.4 408.4,591.3 423.9,587.6 443.3,586.4 453.8,583.3 461.4,576.2 463,564.8 
		460,554.4 416.2,554.4 405.9,560.8 399.7,572.4 	"/>
	<polygon id="XMLID_80_" class="st19" points="473.3,555.2 474.8,578.9 471.5,594.5 463,604.9 434.9,612.4 427.2,616.8 421,625.1 
		421,632.6 430.2,652.6 463,653.1 457.3,642.5 458,633.4 463.6,626 472.2,622.5 482.6,618.8 492.7,613.8 501.5,604.9 501.5,574.5 
		492.7,559.8 482.3,555.7 	"/>
	<path id="XMLID_79_" class="st20" d="M499.3,606.8l-6.6,6.9l-13.8,6.3l-12.4,3.8l-6,3.9l-2.8,7.4v8.7l5.3,9.3l19.6-0.6l9.2-4.4
		c0,0,5.5-6.7,5.8-7.2c0.4-0.5,3-7.2,3-7.2v-15.9L499.3,606.8z"/>
	<g id="XMLID_255_">
		<path id="XMLID_256_" class="st12" d="M476,655.6h-52.4c-15.4,0-27.9-12.5-27.9-27.9V579c0-15.4,12.5-27.9,27.9-27.9H476
			c15.4,0,27.9,12.5,27.9,27.9v48.7C504,643.1,491.4,655.6,476,655.6z M423.6,556.1c-12.6,0-22.9,10.3-22.9,22.9v48.7
			c0,12.6,10.3,22.9,22.9,22.9H476c12.6,0,22.9-10.3,22.9-22.9V579c0-12.6-10.3-22.9-22.9-22.9H423.6z"/>
	</g>
	<g id="XMLID_247_">
		<path id="XMLID_22_" class="st12" d="M398.2,616.3c-1.3,0-2.4-1-2.5-2.3c0-0.5-0.9-12.4,6.9-20.8c4.9-5.3,12.1-8,21.3-8
			c20,0,30.3-2.5,34.4-8.5c3.2-4.6,2.9-11.8-1-22.2c-0.5-1.3,0.2-2.7,1.5-3.2c1.3-0.5,2.7,0.2,3.2,1.5c4.5,12,4.6,20.7,0.4,26.8
			c-5.3,7.6-16.4,10.7-38.5,10.7c-7.7,0-13.7,2.2-17.6,6.4c-6.3,6.8-5.6,16.9-5.6,17c0.1,1.4-0.9,2.6-2.3,2.7
			C398.3,616.3,398.2,616.3,398.2,616.3z"/>
	</g>
	<g id="XMLID_245_">
		<path id="XMLID_21_" class="st12" d="M430.5,655.5c-0.7,0-1.4-0.3-1.9-0.9c-0.5-0.6-12.5-15.6-9.7-29.1c1.3-6,5.2-10.7,11.7-14
			c6-3,12.2-4.4,17.6-5.6c16.5-3.7,28.4-6.4,22.3-52c-0.2-1.4,0.8-2.6,2.1-2.8c1.4-0.2,2.6,0.8,2.8,2.1c6.7,50.2-8.5,53.6-26.2,57.6
			c-5.4,1.2-11,2.5-16.5,5.2c-5.2,2.6-8.1,6.1-9.1,10.6c-2.4,11.1,8.5,24.7,8.7,24.9c0.9,1.1,0.7,2.6-0.4,3.5
			C431.7,655.4,431.1,655.5,430.5,655.5z"/>
	</g>
	<g id="XMLID_243_">
		<path id="XMLID_20_" class="st12" d="M463,654.6c-0.5,0-0.9-0.2-1.3-0.6c-0.4-0.5-8.7-11.6-5.1-21.7c2.2-6.1,8.1-10.3,17.8-12.6
			c28.4-6.8,25.7-21.7,25.5-22.3c-0.2-0.9,0.4-1.7,1.2-1.9c0.9-0.2,1.7,0.4,1.9,1.2c0.2,0.8,3.7,18.6-27.9,26.1
			c-8.5,2-13.7,5.6-15.5,10.6c-3,8.4,4.5,18.6,4.6,18.7c0.5,0.7,0.4,1.7-0.3,2.2C463.6,654.5,463.3,654.6,463,654.6z"/>
	</g>
</g>
<g id="Icon_3">
	<path id="XMLID_107_" class="st21" d="M419.2,436.6l-1.5,1l-11.7,7.5l-6.2,8.7v64.8l7.6,11.2l8.5,4.8l6.2,1.5h57.6l11.2-3.9
		l6.2-6.8l5.2-11V459l-2.5-9.7l-8.9-8.7c0,0-7.8-3.8-8.6-3.5C481.5,437.4,419.2,436.6,419.2,436.6z"/>
	<path id="XMLID_85_" class="st22" d="M406,445.1c0,0-3.2,46.1,32.4,45.6c35.6-0.5,60.5-0.5,63.1,15.1l-0.9,11.6l-9.7,14.7
		l-11.2,3.9l-63.8-1.5l-8.5-4.8l-7.6-11.2v-64.8L406,445.1z"/>
	<path id="XMLID_84_" class="st23" d="M417.7,437.6c0,0,67.9-2.5,83.7,51.8l0.8-27.6l-2.5-12.4l-17.5-12.2l-47.4-0.5L417.7,437.6z"
		/>
	<g id="XMLID_263_">
		<path id="XMLID_264_" class="st12" d="M476,538.7h-52.4c-15.4,0-27.9-12.5-27.9-27.9V462c0-15.4,12.5-27.9,27.9-27.9H476
			c15.4,0,27.9,12.5,27.9,27.9v48.7C504,526.1,491.4,538.7,476,538.7z M423.6,439.1c-12.6,0-22.9,10.3-22.9,22.9v48.7
			c0,12.6,10.3,22.9,22.9,22.9H476c12.6,0,22.9-10.3,22.9-22.9V462c0-12.6-10.3-22.9-22.9-22.9H423.6z"/>
	</g>
	<g id="XMLID_241_">
		<path id="XMLID_19_" class="st12" d="M463,504.8c-0.2,0-0.5,0-0.7-0.1c-1.3-0.4-2.1-1.8-1.7-3.1l8.2-27.1h-25.3l-8.7,28.6
			c-0.4,1.3-1.8,2.1-3.1,1.7c-1.3-0.4-2.1-1.8-1.7-3.1l9.7-32.1h35.8L465.4,503C465,504.1,464,504.8,463,504.8z"/>
	</g>
	<g id="XMLID_239_">
		<path id="XMLID_18_" class="st12" d="M468.9,485.2h-30.6c-1.4,0-2.5-1.1-2.5-2.5c0-1.4,1.1-2.5,2.5-2.5h30.6
			c1.4,0,2.5,1.1,2.5,2.5C471.4,484.1,470.3,485.2,468.9,485.2z"/>
	</g>
	<g id="XMLID_237_">
		<circle id="XMLID_17_" class="st12" cx="427.7" cy="503" r="7.2"/>
	</g>
	<g id="XMLID_235_">
		<circle id="XMLID_16_" class="st12" cx="458.3" cy="503" r="7.2"/>
	</g>
</g>
<g id="Hair_6_">
	<g id="XMLID_689_">
		<polygon id="XMLID_690_" class="st24" points="233.5,507.2 223.7,483.2 216.6,469.5 215.8,454.4 219.2,442.2 220.8,433.9 
			219.4,423.8 214.6,414 205,408.3 190,407.4 166.4,414.9 160,410.5 150.4,406 127.1,403.6 111.2,409.2 98.7,419.9 90.6,436.4 
			83.5,451.3 82.7,462.1 81,471.6 81.1,488.7 84.5,505.6 88.7,540.8 87,555.5 80.3,564.3 92.2,570.8 100.8,569.3 108,567 
			114.4,569.9 120.8,572.2 127,574.7 139.4,575.5 155.4,573 168.5,560.2 189.4,565.9 207.6,565.9 221.2,560.5 231.3,550.1 
			236.6,531.8 		"/>
	</g>
	<g id="XMLID_687_">
		<path id="XMLID_688_" class="st25" d="M116.7,572.6l15.3,3.7l23.4-3.3l6-5.3l7.1-7.5l11.4,3.8l9.6,1.9l16,1.7l15.8-7.1l7.4-10.2
			c2.1-47.7-23.5-62.7-23.5-62.7l-7.3,4.5l-54.5,8.1l-18.6,1.9l-7.6-5.6c14,64.2-9.2,70.3-9.2,70.3L116.7,572.6z"/>
	</g>
	<g id="XMLID_685_">
		<path id="XMLID_686_" class="st25" d="M168.6,427.3c0,0-19.7,28.5-48.9,15.9c0,0-7.7,20.2-24,20.4L108,465l8.6-4.3l7.4-8.3
			l14.6,0.4l15.4-5.6l6.2-5.4l8-11.7L168.6,427.3z"/>
	</g>
	<g id="XMLID_683_">
		<path id="XMLID_684_" class="st25" d="M209.5,442.5c0,0-31.4-5-42-21.6C167.4,420.9,174.1,450.5,209.5,442.5z"/>
	</g>
	<g id="XMLID_681_">
		<path id="XMLID_682_" class="st26" d="M213.2,482c-10.8-16.4,4.5-38.5,4.5-38.5l-1.3,15.5l0.2,10.4l6.1,11.9l8.1,12.8l5.1,25.1
			l-3.8,28.1C232.1,547.3,230.6,508.4,213.2,482z"/>
	</g>
	<g id="XMLID_679_">
		<path id="XMLID_680_" class="st26" d="M165.9,416.5c0,0-27.2-18.3-57.2,11.3c-29.9,29.6-10.5,91.5-10.5,91.5s13.2,61.4-18,45
			l6.9-11l-1.2-34.9l-4.5-49.7l9.1-32.3l8-16.5l17-13l14.8-3l13.9,1l15.7,5.6L165.9,416.5z"/>
	</g>
	<g id="XMLID_677_">
		<path id="XMLID_678_" class="st26" d="M217.6,444.8c0,0,6.6-35.1-51.7-28.3l5.8-3.8l18.3-5.3l11-0.1l7,2.2l6.6,4.5l3.3,6.2
			l1.9,6.3l1,7.4L217.6,444.8z"/>
	</g>
	<g id="XMLID_675_">
		<path id="XMLID_676_" class="st27" d="M220.8,508"/>
	</g>
	<g id="XMLID_671_">
		<path id="XMLID_672_" class="st28" d="M208.9,567.5c-16.6,3.4-34.6-3-39.8-5c-8.4,11.8-21.6,16.6-38.4,14
			c-10.6-1.7-19.5-5.8-22.5-7.3c-2.6,2-5.2,3.1-7.8,3.6c-11.3,2.3-21.2-7-21.3-7.1l-2.2-2.1l2.9-1c0.1,0,13.9-6.2,3-56.6
			c-6-28-1.8-50.2,2.8-63.8c5-14.9,11.4-23,11.7-23.4l0.1-0.1c16-18.3,34.3-18.8,46.8-15.9c11.3,2.6,19.9,8.1,22.6,10
			c22.8-9.5,35-10.2,46.5-2.5c11.7,7.8,7.7,31.6,7.5,33.2c-0.1,1.1-2.5,21.2,1,29.7c0.7,1.7,1.8,3.9,3,6.5
			c5.4,11.1,14.5,29.7,13.8,52.2l0,0.2c-2.1,15.2-8.3,25.7-18.5,31.5C216.4,565.5,212.7,566.7,208.9,567.5z M167.8,557.9l1.4,0.6
			c0.3,0.1,29.5,12.6,48.9,1.8c9.1-5.1,14.7-14.8,16.7-28.7c0.7-21.5-8.1-39.5-13.4-50.3c-1.3-2.6-2.4-4.9-3.1-6.7
			c-3.9-9.6-1.3-30.7-1.2-31.6l0-0.1c0-0.2,4-22.9-5.9-29.5c-10.6-7.1-21.7-6.3-44,3.2l-1,0.4l-0.9-0.7c-0.1-0.1-9.4-7.1-22.2-10
			c-16.8-3.8-31.3,1.2-43.1,14.7c-0.8,1.1-24.8,32.9-13.7,84.1c4.8,22.5,5.6,39.4,2.2,50.3c-1.5,4.8-3.5,7.5-5.1,8.9
			c4,3,14,9,23.4,1.1l1-0.8l1.1,0.6c0.1,0.1,10.3,5.6,22.5,7.5c16.1,2.5,28-2.1,35.5-13.6L167.8,557.9z"/>
	</g>
	<g id="XMLID_669_">
		<path id="XMLID_670_" class="st28" d="M142.4,447c-0.6,0.1-1.3-0.3-1.4-0.9c-0.2-0.7,0.2-1.3,0.9-1.5
			c11.2-2.9,18.7-16.6,18.8-16.7c0.3-0.6,1.1-0.8,1.7-0.5c0.6,0.3,0.8,1.1,0.5,1.7C162.5,429.7,154.7,443.8,142.4,447
			C142.5,447,142.5,447,142.4,447z"/>
	</g>
	<g id="XMLID_667_">
		<path id="XMLID_668_" class="st28" d="M136.5,448.1c-1.6,0.3-5.7,0.8-9.8-1.4c-0.6-0.3-0.8-1.1-0.5-1.7c0.3-0.6,1.1-0.8,1.7-0.5
			c4.2,2.3,8.6,1,8.6,1c0.6-0.2,1.3,0.2,1.5,0.8c0.2,0.6-0.2,1.3-0.8,1.5C137.1,448,136.9,448,136.5,448.1z"/>
	</g>
	<g id="XMLID_665_">
		<path id="XMLID_666_" class="st28" d="M214.8,430.8c-0.6,0.1-1.1-0.2-1.4-0.7l0,0c-0.3-0.6-6.8-14.8-31.4-11
			c-0.7,0.1-1.3-0.4-1.4-1c-0.1-0.7,0.4-1.3,1-1.4c26.6-4.1,33.8,11.7,34,12.4c0.3,0.6,0,1.3-0.6,1.6
			C215,430.7,214.9,430.8,214.8,430.8z"/>
	</g>
	<g id="XMLID_663_">
		<path id="XMLID_664_" class="st28" d="M98.9,436c-0.2,0-0.5,0-0.7-0.1c-0.6-0.2-0.9-0.9-0.7-1.6c0.1-0.2,8.7-22,30.4-23.3
			c0.7,0,1.3,0.5,1.3,1.1c0,0.7-0.5,1.3-1.1,1.3c-20.1,1.2-28.2,21.5-28.3,21.7C99.6,435.6,99.3,435.9,98.9,436z"/>
	</g>
	<g id="XMLID_661_">
		<path id="XMLID_662_" class="st28" d="M92.7,448.9c-0.2,0-0.5,0-0.7-0.1c-0.6-0.3-0.9-1-0.7-1.6l3.1-7.6c0.3-0.6,1-0.9,1.6-0.7
			c0.6,0.3,0.9,1,0.7,1.6l-3.1,7.6C93.4,448.6,93.1,448.8,92.7,448.9z"/>
	</g>
	<g id="XMLID_659_">
		<path id="XMLID_660_" class="st28" d="M102.6,559.4c-0.4,0.1-0.9-0.1-1.2-0.4c-0.4-0.5-0.4-1.3,0.1-1.7c0.2-0.2,12.6-11.8-1-49.6
			c-0.2-0.6,0.1-1.3,0.7-1.6c0.6-0.2,1.3,0.1,1.6,0.7c14.3,39.6,0.9,51.7,0.3,52.2C103,559.2,102.8,559.3,102.6,559.4z"/>
	</g>
</g>
<g id="Right_Arm">
	<path id="XMLID_102_" class="st29" d="M240.7,472.9l3.9,10.2l12.4,0.9l5.3-0.4l-1.6-5.2l11-5.5l0.2-3.8
		C271.8,469.2,253.4,457.7,240.7,472.9z"/>
	<path id="XMLID_90_" class="st30" d="M179.8,507.7l5.9,9.3l6,8.2l9,1l10.7-5l3.1-6c0,0,27.5-10.8,29.4-33.7l-3.1-8.7
		c0,0-23.6,24.9-40,31.3l-13.6,2.5L179.8,507.7z"/>
	<path id="XMLID_88_" class="st31" d="M183.5,516.5c0,0,20.1,5.6,26-7.8c0,0,28.6-9,32.3-28.6l2.8,3.9c0,0-5.4,23.7-28.9,30.8
		C215.6,514.8,196.9,540.7,183.5,516.5z"/>
	<g id="XMLID_207_">
		<path id="XMLID_208_" class="st12" d="M196.8,528.4c-1,0-2-0.1-3.1-0.3c-7.4-1.5-13-8.4-16.9-20.6l-1.4-4.4l4.2,1.8
			c0.3,0.1,12.7,4.9,32.1-9.8c20.4-15.4,27.2-23.5,27.2-23.5l2.3-2.8l5.3,14.8l-0.1,0.6c-0.2,0.9-5.4,22.6-29,32.9
			C215.7,519.1,206.7,528.4,196.8,528.4z M182.1,509.7c3.2,8.4,7.4,13.2,12.5,14.2c9.7,2,20-9.9,20.1-10l0.3-0.4l0.5-0.2
			c19.9-8.4,25.9-26.2,26.9-29.6l-2.5-6.9c-3.5,3.6-11.2,10.8-25.5,21.6C199.3,509.9,187.8,510.5,182.1,509.7z"/>
	</g>
	<g id="XMLID_205_">
		<path id="XMLID_1_" class="st12" d="M250.8,486.2c-2.9,0-5.5-0.3-6.5-0.4c-1.2-0.1-2-1.2-1.8-2.3c0.1-1.2,1.2-2,2.3-1.8
			c4.8,0.6,12.8,0.6,14.5-1.4c0.2-0.2,0.3-0.4,0.2-0.9l-0.4-1.7l1.6-0.7c4.8-1.9,9.5-4.9,9.8-6.2h0c-0.1,0-0.7-0.6-3.3-1.3
			c-19.8-5-24.6,3.9-24.8,4.3c-0.5,1-1.8,1.5-2.8,0.9c-1-0.5-1.5-1.7-1-2.8c0.2-0.5,6.2-12.5,29.6-6.6c1.5,0.4,6.2,1.6,6.4,5.1
			c0.3,4.2-6.8,7.9-11,9.7c-0.1,1-0.6,2-1.3,2.8C260.2,485.6,255,486.2,250.8,486.2z"/>
	</g>
</g>
<g id="Right_Leg">
	<path id="XMLID_101_" class="st32" d="M178.7,631.9l-3.9,8.7l0.1,11.7l53.7,1c0,0-2.5-18.5-26.9-22.2
		C201.7,631,189.8,636.1,178.7,631.9z"/>
	<path id="XMLID_100_" class="st4" d="M203,628c0,0,14.9-43.3-26.8-61.7l-5.8-1.5c0,0-20.6,4.2-12.8,21.8c0,0,9.9,13.4,26.8,13.1
		c0,0-0.8,16.1-7.4,31.1C177,630.8,190.7,641.4,203,628z"/>
	<path id="XMLID_99_" class="st33" d="M163.8,577.8c0,0,6.4,18,27,13.5c0,0,0.8,30.5-6.6,41.3l-7.2-1.8l6.1-15.2l1.3-15.9
		c0,0-21.7,0.4-27.9-16.1c0,0-1.9-8.4,0.9-10.5L163.8,577.8z"/>
	<path id="XMLID_94_" class="st34" d="M193.7,633.1c0,0,11.9,7.3,12.7,19.9h22.2l-4.6-10l-9.9-8.3l-12.2-5.7L193.7,633.1z"/>
	<g id="XMLID_223_">
		<path id="XMLID_10_" class="st12" d="M190.3,635.5c-7,0-13.6-2.6-14-2.7l-2.4-0.9l1.4-2.1c4.9-7.6,6.8-22.3,7.3-27.5
			c-25.1-4.7-28.5-17.8-28.6-18.4c-0.3-1.1,0.4-2.3,1.6-2.5c1.1-0.3,2.2,0.4,2.5,1.5c0.1,0.2,3.4,11.6,27.1,15.5l1.9,0.3l-0.1,1.9
			c-0.1,0.8-1.3,18.4-6.8,29c4.8,1.4,15.8,3.9,20.4-2.5c0.6-2.7,4-19.5-0.1-34.7c-5.8-21.6-30.1-25.5-30.3-25.6
			c-1.1-0.2-1.9-1.2-1.8-2.4c0.2-1.1,1.2-1.9,2.4-1.8c1.1,0.2,27.3,4.3,33.8,28.6c4.7,17.5,0.2,36.3,0,37.1l-0.1,0.4l-0.2,0.3
			C201,634.1,195.5,635.5,190.3,635.5z"/>
	</g>
	<g id="XMLID_221_">
		<path id="XMLID_9_" class="st12" d="M174.9,655.1c-1.1,0-2-0.8-2.1-1.9c-1.5-17.2,5.9-22.8,6.2-23.1c0.9-0.7,2.3-0.5,2.9,0.5
			c0.7,0.9,0.5,2.2-0.4,2.9c-0.2,0.1-5.8,4.8-4.5,19.3c0.1,1.2-0.8,2.2-1.9,2.3C175,655.1,175,655.1,174.9,655.1z"/>
	</g>
	<g id="XMLID_219_">
		<path id="XMLID_8_" class="st12" d="M228.6,655.1c-1,0-1.8-0.7-2-1.6c-4.2-17.8-27-20.4-27.2-20.5c-1.2-0.1-2-1.2-1.9-2.3
			c0.1-1.2,1.1-2,2.3-1.9c1.1,0.1,26,3,30.9,23.7c0.3,1.1-0.4,2.3-1.6,2.5C228.9,655.1,228.8,655.1,228.6,655.1z"/>
	</g>
</g>
<g id="Play_Icon">
	<path id="XMLID_113_" class="st8" d="M216.4,653h140.9l12.3-14.3l14.4-23.7l8-28.9v-27.6l-8-28.7l-14.9-24.3L345.5,484l-33.8-14.7
		l-24.7-2.9c0,0-14.1,0.9-14.5,1c-0.4,0.1-26,6.5-26,6.5s-46.2,20.7-58.2,59.7c0,0-16.4,38.8,0.6,79.1l11.9,21.4l12,14.6L216.4,653z
		"/>
	<path id="XMLID_112_" class="st11" d="M229.6,483.8c0,0,14.6,152.8,151,137l-10.9,18L357.3,653H216.4l-12.7-12.5l-10.7-19.2
		l-8.3-24.2l-3-13.4l-1.3-18.9l7.1-28.3C187.5,536.5,200.6,498.6,229.6,483.8z"/>
	<polygon id="XMLID_105_" class="st10" points="246.1,556 277.3,605 282.6,606.8 287.7,603.4 320.2,548.1 318.9,543.1 315,539.5 
		248.7,546.5 246.1,548.7 245.3,553.1 	"/>
	<path id="XMLID_87_" class="st35" d="M257.5,545.6c0,0,16.2,47.8,51.6,19.2l-20.7,40.1l-5.8,1.9l-5.3-1.8l-31.3-49v-7.3l2.6-2.2
		L257.5,545.6z"/>
	<path id="XMLID_86_" class="st36" d="M301.2,468.1c0,0,91.5,65,23.1,148.6c0,0,29.8,9.5,56.3,4c0,0,29.9-54-6.1-106.6
		C374.5,514.1,348.6,470,301.2,468.1z"/>
	<g id="XMLID_344_">
		<path id="XMLID_68_" class="st12" d="M355.7,655.6c-0.7,0-1.4-0.3-1.9-0.9c-0.9-1.1-0.8-2.6,0.3-3.5
			c23.1-19.7,36.4-48.4,36.4-78.8c0-57-46.4-103.4-103.4-103.4s-103.4,46.4-103.4,103.4c0,30.3,13.3,59.1,36.4,78.8
			c1,0.9,1.2,2.5,0.3,3.5c-0.9,1-2.5,1.2-3.5,0.3c-24.2-20.7-38.1-50.7-38.1-82.6c0-59.8,48.6-108.4,108.4-108.4
			s108.4,48.6,108.4,108.4c0,31.8-13.9,61.9-38.1,82.6C356.9,655.4,356.3,655.6,355.7,655.6z"/>
	</g>
	<g id="XMLID_340_">
		<path id="XMLID_341_" class="st12" d="M281.6,609.4c-3.3,0-6.2-1.6-8-4.4l-30-46.9c-1.8-2.8-2-6.3-0.6-9.2s4.3-5,7.6-5.3l61.9-6.5
			c3.6-0.4,7.1,1.3,9,4.3c2,3.1,2,6.9,0.1,10l-31.9,53.4c-1.7,2.8-4.7,4.6-8,4.6C281.7,609.4,281.7,609.4,281.6,609.4z M247.9,555.4
			l30,46.9c0.9,1.3,2.3,2.1,3.9,2.1c1.6,0,3-0.8,3.8-2.2l31.9-53.4c0.9-1.5,0.9-3.3-0.1-4.7c-0.9-1.5-2.5-2.2-4.3-2.1l-61.9,6.5
			c-1.6,0.2-2.9,1.1-3.6,2.5C246.9,552.5,247,554.1,247.9,555.4L247.9,555.4z"/>
	</g>
	<g id="XMLID_338_">
		<path id="XMLID_65_" class="st12" d="M369.2,537.1c-0.9,0-1.8-0.5-2.2-1.3c-22.7-42.8-60.9-50.5-61.3-50.6c-1.4-0.3-2.2-1.6-2-2.9
			c0.3-1.4,1.5-2.2,2.9-2c1.7,0.3,40.9,8.2,64.8,53.2c0.6,1.2,0.2,2.7-1,3.4C370,537,369.6,537.1,369.2,537.1z"/>
	</g>
	<g id="XMLID_336_">
		<path id="XMLID_64_" class="st12" d="M379.8,578.4c-0.2,0-0.4,0-0.6-0.1c-1.3-0.3-2.2-1.7-1.9-3c3-12.8-4.5-30-4.6-30.2
			c-0.6-1.3,0-2.7,1.3-3.3c1.3-0.6,2.7,0,3.3,1.3c0.3,0.8,8.2,18.9,4.9,33.4C382,577.6,381,578.4,379.8,578.4z"/>
	</g>
	<g id="XMLID_334_">
		<path id="XMLID_63_" class="st12" d="M298.8,608.5c-0.3,0-0.5-0.1-0.8-0.2c-0.8-0.4-1-1.4-0.6-2.2L325,559c0.4-0.8,1.4-1,2.2-0.6
			c0.8,0.4,1,1.4,0.6,2.2l-27.5,47.1C299.9,608.2,299.3,608.5,298.8,608.5z"/>
	</g>
</g>
<g id="Left_Arm">
	<polygon id="XMLID_98_" class="st32" points="89.7,629.1 84.2,635 80.4,642 80.4,651.8 128.5,653.1 127.7,645.5 110.7,631.9 
		101,631 	"/>
	<path id="XMLID_97_" class="st4" d="M134.2,559.8c0,0-30.3,45.5-50,58.3l3.5,7.2l7.4,4.6l11.6,1l13.7-12.2l16.6-19.5l9.3-15.4
		c0,0,18.1,3.5,21.2-19.2C167.6,564.4,152.2,574.9,134.2,559.8z"/>
	<path id="XMLID_96_" class="st33" d="M95.2,629.8c0,0,40.3-29.5,44.3-53.6c0,0,20.9,4.3,27.9-10.4l-2.8,9.9l-4.5,5l-5.8,2.7
		l-7.9,0.4c0,0-16.1,32.5-37.4,45.4L101,631L95.2,629.8z"/>
	<path id="XMLID_95_" class="st34" d="M97.9,630.5c0,0,10.8,5.9,11.4,22.2h19.2l-2.6-6.9l-7.6-8.4l-9.1-5.6l-4.8,0.1L97.9,630.5z"/>
	<g id="XMLID_229_">
		<path id="XMLID_13_" class="st12" d="M103.4,633.1c-17.5,0-21.2-12.9-21.2-13l-0.3-1.3l1-0.9c37-32.8,50.2-60.5,50.3-60.8
			c0.5-1.1,1.7-1.5,2.8-1c1.1,0.5,1.5,1.7,1,2.8c-0.5,1.1-13.4,28.2-50.3,61.2c1.3,2.8,5.9,9.7,19.3,8.7c3.6-2.8,26.4-21.4,38.5-46
			l1-2l1.9,1.1c0.1,0,2.9,1.5,6.8,0c3.9-1.4,9.7-6,15-19.6c0.4-1.1,1.7-1.6,2.7-1.2c1.1,0.4,1.6,1.6,1.2,2.7
			c-4.8,12.2-10.8,19.6-17.7,22.1c-3.4,1.2-6.3,0.9-8.1,0.4c-13.7,26.6-38.3,45.4-39.3,46.2l-0.5,0.4l-0.6,0.1
			C105.7,633,104.5,633.1,103.4,633.1z"/>
	</g>
	<g id="XMLID_227_">
		<path id="XMLID_12_" class="st12" d="M129.7,655.2c-0.8,0-1.6-0.5-2-1.3c-6.6-16.5-21.4-21-21.6-21c-1.1-0.3-1.8-1.5-1.4-2.6
			c0.3-1.1,1.5-1.8,2.6-1.4c0.7,0.2,17,5.1,24.3,23.5c0.4,1.1-0.1,2.3-1.2,2.7C130.3,655.1,130,655.2,129.7,655.2z"/>
	</g>
	<g id="XMLID_225_">
		<path id="XMLID_11_" class="st12" d="M79.6,655.1c-1,0-1.8-0.7-2.1-1.7c-3.4-16,11.8-26.8,12.5-27.2c1-0.7,2.3-0.4,2.9,0.5
			c0.7,1,0.4,2.3-0.5,2.9c-0.1,0.1-13.6,9.6-10.8,22.9c0.2,1.1-0.5,2.3-1.6,2.5C79.9,655.1,79.7,655.1,79.6,655.1z"/>
	</g>
</g>
<g id="Body">
	<path id="XMLID_104_" class="st37" d="M152.1,514.3l-5.1,11.9l-5,15.8l-7,16l6.7,6.7l14.1,2.3l16.1-5c0,0,29.7-31.9,6.7-56.3
		C178.6,505.7,156.5,505.7,152.1,514.3z"/>
	<path id="XMLID_93_" class="st38" d="M151.6,565.7c0,0,31-17.9,27-60l8,10.3l2.5,13.2l-7,17.5l-8.8,15.7
		C173.4,562.5,161.7,569.9,151.6,565.7z"/>
	<g id="XMLID_231_">
		<path id="XMLID_232_" class="st12" d="M153.8,569.2c-14.6,0-20.5-10-20.6-10.1l-0.6-1l0.6-1c6.7-11.7,12.3-33.5,12.7-34.7
			c4.1-20.6,32.9-18.7,34.2-18.6l0.7,0.1l0.5,0.5c23.8,22-7.2,58.6-8.6,60.1l-0.3,0.4l-0.4,0.2C164.8,568.1,158.8,569.2,153.8,569.2
			z M137.5,558c2.4,3.1,11.5,12.2,32.4,3.3c3.1-3.7,27.8-35.2,9.1-53.4c-4.3-0.1-26-0.1-29,15.3l0,0.1
			C149.7,524.2,144.3,545.3,137.5,558z"/>
	</g>
</g>
<g id="Neck">
	<path id="XMLID_92_" class="st29" d="M157.6,495.8l4.4,14.5c0,0,9.8,8.7,15.3,0l-2.5-19.6C174.7,490.6,168.6,485.4,157.6,495.8z"/>
	<g id="XMLID_217_">
		<path id="XMLID_7_" class="st12" d="M170.7,516.4c-5.6,0-10-3.8-11.9-6.6l-0.2-0.3l-3.1-13.2c-0.3-1.1,0.4-2.3,1.6-2.5
			c1.1-0.3,2.3,0.4,2.5,1.6l2.9,12.4c1.1,1.5,5.8,6.8,12.7,3.3l-2.6-20.1c-0.1-1.2,0.7-2.2,1.8-2.4c1.2-0.1,2.2,0.7,2.4,1.8
			l2.9,22.9l-1.1,0.7C175.8,515.7,173.1,516.4,170.7,516.4z"/>
	</g>
</g>
<g id="Head_10_">
	<g id="XMLID_657_">
		<polygon id="XMLID_658_" class="st39" points="116,485.4 109.6,485.2 104,479.4 103.9,474.5 106.7,468.5 112.8,465.6 		"/>
	</g>
	<g id="XMLID_655_">
		<polygon id="XMLID_656_" class="st39" points="203.3,445.8 208.2,479.9 206.3,487.9 197.8,492.5 170.2,496.5 134.2,501.8 
			124.4,502.3 123.2,501.5 118.3,496.9 112.8,465.6 119.6,459.1 125.2,452.6 139.9,452.9 156.9,447.6 170.6,430.4 180.6,438.7 
			197.2,442.5 		"/>
	</g>
	<g id="XMLID_653_">
		<path id="XMLID_654_" class="st40" d="M206.1,473.1c0,0,0.6,10.5-8.4,12.3c-9.1,1.8-65.7,9.5-65.7,9.5s-11.8,0.3-15-6.3l1.5,8.2
			l7.6,5.6l8.3-0.6l66.8-9.9l3.2-1.8l3.3-4.5l0.9-3.4L206.1,473.1z"/>
	</g>
	<g id="XMLID_651_">
		<path id="XMLID_652_" class="st40" d="M174.1,433.8c0,0-12.1,26.4-45.3,24.7c0,0-4.5,8.9-13.5,12.2l-2.3-7.3l12.2-10.8l13.3,1.7
			l14.7-5.6l11-10.3l5.2-8.2L174.1,433.8z"/>
	</g>
	<g id="XMLID_649_">
		<path id="XMLID_650_" class="st40" d="M203.8,449.3c0,0-21.6,0.1-37.5-12.8l4.3-6.1l8.3,7.6l13.2,5.3l8.8,1.3L203.8,449.3z"/>
	</g>
	<g id="XMLID_647_">
		<path id="XMLID_648_" class="st41" d="M182.2,466.9c0,0-0.6-6.2-5-11.3l0.5,16.1l2.8-1.5L182.2,466.9z"/>
	</g>
	<g id="XMLID_645_">
		
			<ellipse id="XMLID_646_" transform="matrix(-1 6.372381e-003 -6.372381e-003 -1 308.4567 936.5199)" class="st41" cx="152.7" cy="468.8" rx="4.2" ry="2.2"/>
	</g>
	<g id="XMLID_643_">
		
			<ellipse id="XMLID_644_" transform="matrix(-0.9976 6.921130e-002 -6.921130e-002 -0.9976 423.2698 915.3486)" class="st41" cx="195.8" cy="465" rx="4.2" ry="2.2"/>
	</g>
	<g id="XMLID_641_">
		<path id="XMLID_642_" class="st40" d="M177,484.5c0,0-25.2,10.2-31.1-10.3l4.5,3.8l11.1,4.6l10.2,1.2L177,484.5z"/>
	</g>
	<g id="XMLID_639_">
		<path id="XMLID_640_" class="st28" d="M108.8,466.6c-3.6,0.7-7.8,0.7-12.5-0.7c-1-0.3-1.5-1.3-1.3-2.3c0.3-1,1.3-1.5,2.3-1.3
			c17.2,5,26.2-10.6,26.3-10.8l0.7-1.2l1.3,0.3c27.9,5.9,43.2-21,43.4-21.3l1.2-2.2l1.7,1.9c17.3,18.8,36.7,12.6,36.9,12.5
			c1-0.3,2,0.2,2.3,1.2c0.3,1-0.2,2-1.2,2.3c-0.9,0.3-20.7,6.7-39.2-11.8c-3.4,5.1-13.6,17.9-29.7,21.2c-4.6,0.9-9.6,1.1-15.1,0.1
			C124.1,457.4,118.3,464.7,108.8,466.6z"/>
	</g>
	<g id="XMLID_637_">
		<path id="XMLID_638_" class="st28" d="M115.3,487.3c-0.1,0-0.1,0-0.2,0c-3.2,0.3-6.3-0.6-8.7-2.6c-2.5-2-4-4.8-4.4-8
			c-0.3-3.2,0.6-6.3,2.6-8.7c2-2.5,4.8-4,8-4.4c1-0.1,1.9,0.6,2,1.6c0.1,1-0.6,1.9-1.6,2c-2.2,0.2-4.1,1.3-5.5,3
			c-1.4,1.7-2,3.8-1.8,6c0.2,2.2,1.3,4.1,3,5.5c1.7,1.4,3.8,2,6,1.8c1-0.1,1.9,0.6,2,1.6C116.9,486.3,116.2,487.1,115.3,487.3z"/>
	</g>
	<g id="XMLID_635_">
		<path id="XMLID_636_" class="st28" d="M108.3,476.7c-0.2,0-0.4,0-0.6,0c-0.6-0.2-1-0.9-0.8-1.5c1.5-4.4,6.6-5.2,6.9-5.2
			c0.7-0.1,1.3,0.4,1.4,1c0.1,0.7-0.4,1.3-1,1.4l0,0c0,0-3.9,0.6-4.9,3.6C109,476.3,108.7,476.6,108.3,476.7z"/>
	</g>
	<g id="XMLID_633_">
		<path id="XMLID_634_" class="st28" d="M199.9,494.1c-0.2,0-0.5,0.1-0.7,0.1l-69.4,10.1c-7,1-13.5-3.8-14.5-10.8l-4.3-29.8
			c-0.1-1,0.6-2,1.6-2.1c1-0.1,1.9,0.6,2.1,1.6l4.3,29.8c0.7,5,5.4,8.4,10.3,7.7l69.4-10.1c5-0.7,8.4-5.4,7.7-10.3l-5.2-35.5
			c-0.1-1,0.6-2,1.6-2.1c1-0.1,1.9,0.6,2.1,1.6l5.2,35.5C211,486.4,206.5,492.7,199.9,494.1z"/>
	</g>
</g>
<g id="Face_12_">
	<g id="XMLID_631_">
		<circle id="XMLID_632_" class="st28" cx="190.5" cy="457.1" r="4"/>
	</g>
	<g id="XMLID_629_">
		<circle id="XMLID_630_" class="st28" cx="157.2" cy="460.5" r="4"/>
	</g>
	<g id="XMLID_627_">
		<path id="XMLID_628_" class="st28" d="M178.4,473.7c-0.1,0-0.2,0-0.3,0.1c-3.2,0.5-6.3-2-6.8-5.5c-0.1-1,0.6-2,1.6-2.1
			c1-0.1,1.9,0.6,2.1,1.6c0.2,1.5,1.4,2.6,2.6,2.4c1.2-0.2,2-1.5,1.8-3c-0.1-1,0.6-2,1.6-2.1c1-0.1,1.9,0.6,2.1,1.6
			C183.5,469.9,181.5,473,178.4,473.7z"/>
	</g>
	<g id="XMLID_625_">
		<path id="XMLID_626_" class="st28" d="M176.3,484.9c-3.2,0.6-20.4,3.4-30.2-9.3c-0.6-0.8-0.5-2,0.3-2.6c0.8-0.6,2-0.5,2.6,0.3
			c9.2,11.9,26.8,7.9,27,7.9c1-0.2,2,0.4,2.2,1.4c0.2,1-0.4,2-1.4,2.2C176.7,484.8,176.6,484.8,176.3,484.9z"/>
	</g>
</g>
<g id="Left_Arm_1_">
	<polygon id="XMLID_103_" class="st29" points="213.7,554.4 209.5,558.1 213.4,571.5 222.2,571.5 232,567.1 233.9,556.1 
		229.6,553.6 222.2,557.5 	"/>
	<path id="XMLID_91_" class="st30" d="M150.3,518.6c0,0,4.3,33.3,18.3,45.9l10.8,7l22.2,0.9l9.9-1.8l-3.2-9.8l-16.7-4l-10.7-3.3
		l-3.7-5.7l-2.8-11.4l-7.2-9.8l-10.2-6.2L150.3,518.6z"/>
	<path id="XMLID_89_" class="st31" d="M155.9,520.2c0,0,4.2,53.5,53.6,47l1.9,3.4c0,0-36.9,11.5-51.7-17.8l-8.7-24.2v-10
		L155.9,520.2z"/>
	<g id="XMLID_213_">
		<path id="XMLID_214_" class="st12" d="M196.4,574.7c-10.9,0-20.2-3-27.7-8.9c-20-15.6-20.5-45.9-20.5-47.2l0-2.4l2.4,0.3
			c21.5,2.8,29.9,29.8,31.5,35.6c0.4,0.2,0.8,0.4,1.3,0.6c2.2,1,5,2.3,9.4,3.4c10.7,2.7,16.4,1.9,16.5,1.9l3-0.4l-0.6,2.9
			c-0.8,3.9,3.3,8.5,3.4,8.6l2.5,2.6l-3.5,0.8C207.6,574,201.8,574.7,196.4,574.7z M152.5,521.1c0.6,7.5,3.6,29.5,18.7,41.4
			c9.6,7.5,22.6,9.7,38.5,6.6c-1.1-1.8-2.3-4.2-2.5-6.8c-2.9,0-8.1-0.3-15.6-2.1c-4.8-1.2-7.9-2.6-10.1-3.7
			c-0.7-0.3-1.4-0.6-1.9-0.9c-0.1,0-0.1-0.1-0.2-0.1c-1.7-0.7-2.8-0.7-4.8,0c-1.1,0.4-2.3-0.1-2.7-1.2c-0.4-1.1,0.1-2.3,1.2-2.7
			c1.6-0.6,3-0.9,4.2-0.9C174.8,543.1,167.4,524.8,152.5,521.1z"/>
	</g>
	<g id="XMLID_211_">
		<path id="XMLID_4_" class="st12" d="M220.4,573.6c-2.5,0-5-0.4-7.6-1.2c-1.1-0.3-1.7-1.5-1.4-2.6c0.3-1.1,1.5-1.7,2.6-1.4
			c5.6,1.7,11.4,1.1,15-1.5c2.4-1.7,3.7-4.2,3.8-7.2c0-1.2-0.2-2-0.7-2.3c-1.7-1.1-6.9,0.8-10,2.5l-1.5,0.8l-1.1-1.2
			c-2-2.2-3.8-3.2-5-2.9c-1.7,0.4-2.9,3.3-3.1,4c-0.3,1.1-1.5,1.8-2.6,1.4c-1.1-0.3-1.8-1.5-1.4-2.6c0.2-0.6,1.8-5.9,6.1-6.9
			c2.5-0.6,5.2,0.4,7.9,3c3-1.5,9.1-4,12.8-1.7c1.3,0.8,2.9,2.5,2.7,6.1c-0.2,4.4-2.1,8-5.6,10.5
			C228.5,572.5,224.6,573.6,220.4,573.6z"/>
	</g>
</g>
<g id="Ground">
	<g id="XMLID_354_">
		<path id="XMLID_73_" class="st12" d="M577.5,655.5H551c-1.4,0-2.5-1.1-2.5-2.5c0-1.4,1.1-2.5,2.5-2.5h26.5c1.4,0,2.5,1.1,2.5,2.5
			C580,654.4,578.9,655.5,577.5,655.5z"/>
	</g>
	<g id="XMLID_352_">
		<path id="XMLID_72_" class="st12" d="M540.4,655.5H408c-1.4,0-2.5-1.1-2.5-2.5c0-1.4,1.1-2.5,2.5-2.5h132.4c1.4,0,2.5,1.1,2.5,2.5
			C542.9,654.4,541.8,655.5,540.4,655.5z"/>
	</g>
	<g id="XMLID_350_">
		<path id="XMLID_71_" class="st12" d="M395.8,655.5h-15.9c-1.4,0-2.5-1.1-2.5-2.5c0-1.4,1.1-2.5,2.5-2.5h15.9
			c1.4,0,2.5,1.1,2.5,2.5C398.3,654.4,397.2,655.5,395.8,655.5z"/>
	</g>
	<g id="XMLID_348_">
		<path id="XMLID_70_" class="st12" d="M365.1,655.5h-205c-1.4,0-2.5-1.1-2.5-2.5c0-1.4,1.1-2.5,2.5-2.5h205c1.4,0,2.5,1.1,2.5,2.5
			C367.6,654.4,366.5,655.5,365.1,655.5z"/>
	</g>
	<g id="XMLID_346_">
		<path id="XMLID_69_" class="st12" d="M147.9,655.5H24.5c-1.4,0-2.5-1.1-2.5-2.5c0-1.4,1.1-2.5,2.5-2.5h123.4
			c1.4,0,2.5,1.1,2.5,2.5C150.4,654.4,149.3,655.5,147.9,655.5z"/>
	</g>
</g>
</svg>
